<svg width="150" height="150" viewBox="0 0 150 150" fill="none" xmlns="http://www.w3.org/2000/svg">
<g id="icon-perfil-hombre 2" clip-path="url(#clip0_126_1013)">
<g id="Group">
<g id="Group_2">
<path id="Vector" d="M76.3418 97.9167C89.788 97.9167 100.688 87.0163 100.688 73.5701C100.688 60.1239 89.788 49.2236 76.3418 49.2236C62.8956 49.2236 51.9953 60.1239 51.9953 73.5701C51.9953 87.0163 62.8956 97.9167 76.3418 97.9167Z" fill="#A0616A"/>
<path id="Vector_2" d="M56.1902 103.368L61.2654 90.3983L87.4872 86.4509L90.3045 115.161L63.8007 115.725L56.1902 103.368Z" fill="#A0616A"/>
</g>
<path id="Vector_3" d="M100.924 78.0623C100.608 79.3282 99.9695 82.3423 98.972 82.3571C98.1571 82.369 97.3771 69.2928 98.1911 67.13C99.1262 64.6452 96.6689 61.502 94.8178 59.8884C91.4895 56.9873 84.1015 63.2168 76.5891 60.3948C76.3899 60.3201 76.4296 60.3285 74.0573 59.3821C66.7576 56.4696 66.3739 56.3855 65.9556 56.344C62.417 55.9939 58.0984 58.8896 56.3349 62.4202C54.5018 66.0903 56.0334 69.2382 54.3095 78.1171C54.1086 79.1521 53.7932 80.6272 53.2968 80.6489C52.3894 80.6885 51.5034 75.842 51.2714 74.5727C50.2992 69.2545 49.3619 64.1272 51.2714 58.3694C51.4797 57.7414 52.7634 55.4104 55.3222 50.7741C59.0086 44.0951 60.8627 40.7429 61.3985 40.1407C65.2411 35.8194 72.2356 31.8773 78.1081 33.5581C81.0763 34.4076 80.5441 35.7734 84.1844 37.1025C90.6716 39.4711 96.3098 36.5744 97.3495 38.6216C97.9004 39.706 96.3592 40.6 96.3368 42.6724C96.2985 46.2283 100.796 47.2558 103.426 50.7741C104.84 52.6655 107.26 52.6858 100.924 78.0623Z" fill="#2F2E41"/>
</g>
<path id="Vector_4" d="M131.087 124.796C130.105 125.899 129.087 126.979 128.033 128.033C113.868 142.198 95.0329 150 75 150C57.6852 150 41.2669 144.172 27.984 133.444C27.9755 133.438 27.9699 133.432 27.9615 133.424C26.1993 132.003 24.4934 130.492 22.8468 128.896C22.8778 128.648 22.9116 128.402 22.9483 128.16C23.1795 126.524 23.4361 124.965 23.7236 123.53C26.078 111.767 57.0564 99.4174 57.8628 99.0958C57.8741 99.0931 57.8797 99.0903 57.8797 99.0903C57.8797 99.0903 61.8666 113.786 78.9502 113.597C90.5865 113.47 88.3308 99.0903 88.3308 99.0903C88.3308 99.0903 88.4718 99.1184 88.7368 99.1749C92.0977 99.8883 115.432 105.014 124.638 112.01C127.444 114.141 129.457 118.681 130.903 124.094C130.965 124.325 131.024 124.562 131.087 124.796Z" fill="#57D6F2"/>
<path id="Vector_5" d="M128.033 21.9671C113.868 7.80194 95.0329 0 75 0C54.9671 0 36.1326 7.80194 21.9671 21.9671C7.80174 36.1326 0 54.9672 0 75C0 93.2849 6.49907 110.571 18.4088 124.221C19.5451 125.526 20.7322 126.798 21.9671 128.033C22.2575 128.323 22.5507 128.614 22.8468 128.896C24.4935 130.492 26.1993 132.003 27.9615 133.424C27.9699 133.432 27.9756 133.438 27.984 133.444C41.2669 144.172 57.6852 150 75 150C95.0329 150 113.868 142.198 128.033 128.033C129.087 126.979 130.105 125.899 131.087 124.796C143.315 111.059 150 93.5443 150 75C150 54.9672 142.198 36.1326 128.033 21.9671ZM130.903 124.094C128.684 126.618 126.299 128.992 123.761 131.194C118.948 135.381 113.591 138.956 107.814 141.804C105.787 142.805 103.709 143.715 101.583 144.53C93.3242 147.699 84.3609 149.436 75 149.436C65.9662 149.436 57.3045 147.818 49.2886 144.857C45.9981 143.645 42.8177 142.204 39.7641 140.555C39.3158 140.312 38.8703 140.067 38.4276 139.816C36.0987 138.496 33.8459 137.056 31.6833 135.499C28.5846 133.277 25.6635 130.822 22.9483 128.16C21.4258 126.668 19.9709 125.115 18.5809 123.499C7.35623 110.462 0.56391 93.5104 0.56391 75C0.56391 33.956 33.9558 0.56391 75 0.56391C116.044 0.56391 149.436 33.956 149.436 75C149.436 93.7952 142.435 110.983 130.903 124.094Z" fill="#3F3D56"/>
</g>
<defs>
<clipPath id="clip0_126_1013">
<rect width="150" height="150" fill="white"/>
</clipPath>
</defs>
</svg>
